<svg xmlns="http://www.w3.org/2000/svg" width="350" height="165" viewBox="0 0 350 165" fill="none">
        <style>
          .header {
            font: 600 18px 'Segoe UI', Ubuntu, Sans-Serif;
            fill: #2f80ed;
            animation: fadeInAnimation 0.8s ease-in-out forwards;
          }
          
    .lang-name { font: 400 11px 'Segoe UI', Ubuntu, Sans-Serif; fill: #333 }
  

          
        </style>

        undefined

        <rect data-testid="card-bg" x="0.5" y="0.5" rx="4.5" height="99%" stroke="#E4E2E2" width="349" fill="#fffefe" stroke-opacity="1"/>

        
      <g data-testid="card-title" transform="translate(25, 35)">
        <g transform="translate(0, 0)">
      <text x="0" y="0" class="header" data-testid="header">Most Used Languages</text>
    </g>
      </g>
    

        <g data-testid="main-card-body" transform="translate(0, 55)">
          
    <svg data-testid="lang-items" x="25">
      
      <mask id="rect-mask">
        <rect x="0" y="0" width="300" height="8" fill="white" rx="5"/>
      </mask>
      
          <rect mask="url(#rect-mask)" data-testid="lang-progress" x="0" y="0" width="232.58" height="8" fill="#f1e05a"/>
        
          <rect mask="url(#rect-mask)" data-testid="lang-progress" x="232.58" y="0" width="36.27" height="8" fill="#e34c26"/>
        
          <rect mask="url(#rect-mask)" data-testid="lang-progress" x="268.85" y="0" width="19.96" height="8" fill="#2b7489"/>
        
          <rect mask="url(#rect-mask)" data-testid="lang-progress" x="288.81" y="0" width="19.89" height="8" fill="#563d7c"/>
        
          <rect mask="url(#rect-mask)" data-testid="lang-progress" x="298.7" y="0" width="11.31" height="8" fill="#858585"/>
        
      
    <g transform="translate(0, 25)">
      <circle cx="5" cy="6" r="5" fill="#f1e05a"/>
      <text data-testid="lang-name" x="15" y="10" class="lang-name">
        JavaScript 77.53%
      </text>
    </g>
  
    <g transform="translate(150, 25)">
      <circle cx="5" cy="6" r="5" fill="#e34c26"/>
      <text data-testid="lang-name" x="15" y="10" class="lang-name">
        HTML 12.09%
      </text>
    </g>
  
    <g transform="translate(0, 50)">
      <circle cx="5" cy="6" r="5" fill="#2b7489"/>
      <text data-testid="lang-name" x="15" y="10" class="lang-name">
        TypeScript 6.65%
      </text>
    </g>
  
    <g transform="translate(150, 50)">
      <circle cx="5" cy="6" r="5" fill="#563d7c"/>
      <text data-testid="lang-name" x="15" y="10" class="lang-name">
        CSS 3.30%
      </text>
    </g>
  
    <g transform="translate(0, 75)">
      <circle cx="5" cy="6" r="5" fill="#858585"/>
      <text data-testid="lang-name" x="15" y="10" class="lang-name">
        GLSL 0.44%
      </text>
    </g>
  
    
    </svg>
  
        </g>
      </svg>